<?xml version="1.0" encoding="utf-8"?>
<!-- Generator: Adobe Illustrator 16.0.0, SVG Export Plug-In . SVG Version: 6.00 Build 0)  -->
<!DOCTYPE svg PUBLIC "-//W3C//DTD SVG 1.1//EN" "http://www.w3.org/Graphics/SVG/1.1/DTD/svg11.dtd">
<svg version="1.1" id="Layer_1" xmlns="http://www.w3.org/2000/svg" xmlns:xlink="http://www.w3.org/1999/xlink" x="0px" y="0px"
	 width="300px" height="120px" viewBox="0 0 300 120" enable-background="new 0 0 300 120" xml:space="preserve">
<path fill="#2E3192" stroke="#000000" stroke-miterlimit="10" d="M28.083,6.861c7.112,0,12.785,1.114,17.017,3.348
	c4.276,2.232,6.416,5.208,6.416,8.928c0,2.184-0.954,4.161-2.858,5.928c-1.907,1.767-4.532,3.137-7.881,4.114
	c-3.256,1.024-7.043,1.534-11.368,1.534c-6.651,0-11.951-1.068-15.903-3.208C9.509,25.32,7.51,22.391,7.51,18.718
	c0-3.486,1.881-6.347,5.649-8.579C16.969,7.955,21.945,6.861,28.083,6.861 M7.789,36.85h44.146v80.689H7.789V36.85z"/>
<path fill="#BE1E2D" stroke="#000000" stroke-miterlimit="10" d="M104.344,8.255l59,48.331c5.579,4.464,9.577,8.857,11.994,13.183
	c2.464,4.414,3.698,9.343,3.698,14.782c0,6.695-1.86,12.74-5.578,18.133c-3.677,5.393-8.72,9.393-15.136,11.996
	c-1.768,0.744-3.278,1.255-4.533,1.534c-1.769,0.419-3.532,0.72-5.3,0.908c-1.999,0.184-4.417,0.323-7.255,0.415
	c-7.532-5.252-12.876-8.995-16.039-11.228c-3.162-2.233-6.905-4.927-11.228-8.089c-7.023-5.162-13.81-10.532-20.365-16.11
	c-6.418-5.304-11.508-10.021-15.274-14.157c-3.719-3.952-6.371-7.416-7.949-10.392c-1.257-2.463-2.233-5.162-2.93-8.092
	c-0.745-2.93-1.116-5.669-1.116-8.228c0-7.066,1.813-13.203,5.44-18.411c3.626-5.255,8.718-9.208,15.274-11.857
	c2.557-0.975,5.091-1.675,7.6-2.091C97.115,8.512,100.344,8.303,104.344,8.255 M66.962,117.539V71.581l58.655,45.958H66.962z
	 M172.622,52.123l-54.26-44.565h54.26V52.123z"/>
<path fill="#BE1E2D" stroke="#000000" stroke-miterlimit="10" d="M176.651,117.539V7.559h115.421v41.426l-11.019-8.3v41.009
	l11.299-9.137v44.982H176.651z M280.772,81.973l-40.798-18.689v51.957L280.772,81.973z M280.632,40.268L240.254,10v51.957
	L280.632,40.268z"/>
</svg>
